<svg width="43" height="42" viewBox="0 0 43 42" fill="none" xmlns="http://www.w3.org/2000/svg">
<path fill-rule="evenodd" clip-rule="evenodd" d="M31.7892 8.28436L19.1522 8L6.51524 8.28436C4.17358 8.33705 2.19089 10.0181 1.76749 12.3099C0.744171 17.8488 0.744171 23.5269 1.76749 29.0658C2.19089 31.3575 4.17358 33.0386 6.51524 33.0913L19.1522 33.3757L31.7892 33.0913C34.1309 33.0386 36.1136 31.3575 36.537 29.0658C37.5603 23.5269 37.5603 17.8488 36.537 12.3099C36.1136 10.0181 34.1309 8.33705 31.7892 8.28436ZM6.57491 10.9087L19.1522 10.6257L31.7296 10.9087C32.8207 10.9332 33.7445 11.7165 33.9418 12.7844C34.2114 14.2439 34.4057 15.7136 34.5247 17.1878H3.77972C3.89873 15.7136 4.09305 14.2439 4.36269 12.7844C4.55997 11.7165 5.48381 10.9332 6.57491 10.9087ZM3.63867 20.6878C3.63867 23.3333 3.88001 25.9787 4.36269 28.5913C4.55997 29.6591 5.48381 30.4424 6.57491 30.467L19.1522 30.75L31.7296 30.467C32.8207 30.4424 33.7445 29.6591 33.9418 28.5913C34.4245 25.9787 34.6658 23.3333 34.6658 20.6878H3.63867Z" fill="white"/>
</svg>
