<svg width="33" height="32" viewBox="0 0 33 32" fill="none" xmlns="http://www.w3.org/2000/svg">
<path fill-rule="evenodd" clip-rule="evenodd" d="M32.0566 22.4866C31.3277 21.0259 30.3672 19.6916 29.212 18.535C28.8189 18.0803 28.3579 17.6317 27.9981 17.2815L27.9478 17.2325C27.7622 17.0519 27.6088 16.9018 27.4833 16.7726C29.0629 14.5876 30.4148 12.2478 31.5179 9.78955L31.5624 9.69036L31.5936 9.58627C31.7386 9.10241 31.9055 8.18232 31.3149 7.35081C30.7044 6.49137 29.7267 6.33637 29.0722 6.33637H26.0605C25.4326 6.30774 24.8109 6.47659 24.2841 6.81989C23.7534 7.16578 23.3474 7.67029 23.124 8.26005C22.4754 9.79697 21.6639 11.2588 20.7042 12.6212V9.11017C20.7042 8.65632 20.6612 7.89711 20.1727 7.25631C19.5878 6.48906 18.742 6.33637 18.1549 6.33637H13.376C12.7603 6.32221 12.1615 6.54122 11.7014 6.95004C11.2301 7.36871 10.9413 7.95353 10.8962 8.58049L10.892 8.63988V8.69943C10.892 9.34673 11.1498 9.82421 11.3558 10.1245C11.448 10.259 11.5466 10.3813 11.6089 10.4586L11.6233 10.4765C11.6898 10.5589 11.7341 10.6139 11.7786 10.6741C11.8957 10.8326 12.0641 11.0768 12.1117 11.7089V13.6729C11.2879 12.3256 10.4188 10.5327 9.76488 8.61784L9.75485 8.58845L9.74372 8.55946C9.58067 8.13463 9.31915 7.51649 8.79539 7.04347C8.18351 6.49087 7.45978 6.33637 6.8016 6.33637H3.74584C3.07998 6.33637 2.27725 6.49134 1.67828 7.11991C1.08928 7.73802 1.02257 8.47868 1.02257 8.87248V9.04999L1.06015 9.22351C1.90654 13.1317 3.65053 16.7915 6.15511 19.9168C7.29061 21.6982 8.82926 23.1914 10.6486 24.2766C12.497 25.3792 14.5823 26.0291 16.7326 26.1729L16.7887 26.1766H16.8449C17.8178 26.1766 18.8319 26.0931 19.5945 25.5875C20.6233 24.9055 20.7042 23.858 20.7042 23.3361V21.8188C20.9682 22.0312 21.2958 22.317 21.6967 22.7011C22.1815 23.1838 22.5675 23.602 22.8986 23.9671L23.0753 24.1625L23.0763 24.1637C23.3334 24.4485 23.5864 24.7288 23.8168 24.9592C24.1065 25.2489 24.4635 25.568 24.9123 25.8038C25.3983 26.0591 25.9085 26.1745 26.4503 26.1745H29.5081C30.1523 26.1745 31.0763 26.023 31.7259 25.2738C32.4339 24.4572 32.3798 23.4564 32.1572 22.7373L32.1172 22.6079L32.0566 22.4866ZM24.3913 22.6274C24.047 22.2478 23.632 21.7978 23.1075 21.276L23.1031 21.2718C21.2855 19.5285 20.4363 19.2248 19.8357 19.2248C19.5164 19.2248 19.163 19.2604 18.9336 19.5446C18.8254 19.6788 18.7685 19.8406 18.7366 20.0093C18.7047 20.1777 18.6938 20.3754 18.6938 20.6006V23.3361C18.6938 23.6758 18.6376 23.8185 18.4796 23.9232C18.2692 24.0627 17.8196 24.1757 16.8562 24.1766C15.0276 24.0526 13.2545 23.4991 11.6825 22.5614C10.1072 21.6217 8.77887 20.3233 7.80688 18.7729L7.7963 18.756L7.78378 18.7405C5.45001 15.8508 3.82378 12.4609 3.03339 8.83872C3.03767 8.6641 3.0757 8.56051 3.13731 8.49586C3.2008 8.42923 3.35463 8.33637 3.74584 8.33637H6.8016C7.14153 8.33637 7.31745 8.40993 7.44406 8.52428C7.58761 8.65392 7.7121 8.87406 7.86335 9.26715C8.61339 11.4618 9.62767 13.5142 10.5881 15.0233C11.0682 15.7776 11.5407 16.4054 11.9663 16.849C12.1788 17.0705 12.3872 17.2541 12.5861 17.3846C12.7786 17.5108 12.9968 17.6104 13.2212 17.6104C13.3396 17.6104 13.4781 17.5983 13.6115 17.5396C13.755 17.4764 13.8663 17.3711 13.945 17.23C14.0841 16.9803 14.1222 16.6106 14.1222 16.1262V11.6412L14.1215 11.6307C14.052 10.5396 13.7209 9.92583 13.3984 9.4895C13.3278 9.39387 13.2581 9.30749 13.1971 9.23191L13.1804 9.21119C13.1134 9.12813 13.0602 9.06101 13.0164 8.99718C12.9362 8.88024 12.9051 8.79871 12.9025 8.71133C12.913 8.60763 12.9621 8.51139 13.0405 8.44177C13.1218 8.3695 13.2283 8.33188 13.3373 8.33637H18.1549C18.431 8.33637 18.524 8.40342 18.5709 8.46483C18.637 8.55152 18.6938 8.73182 18.6938 9.11017V15.1483C18.6938 15.8656 19.0261 16.3511 19.5088 16.3511C20.0641 16.3511 20.4645 16.0159 21.1646 15.3194L21.1763 15.3078L21.1868 15.295C22.7559 13.3913 24.0385 11.2706 24.993 8.99916L24.9991 8.98213C25.0709 8.78143 25.2067 8.60959 25.3858 8.49285C25.565 8.37612 25.7776 8.32088 25.9912 8.33558L26.0027 8.33637H29.0722C29.4908 8.33637 29.6285 8.44236 29.673 8.50503C29.7204 8.57172 29.7534 8.71464 29.6728 8.99492C28.5723 11.4435 27.2114 13.7676 25.614 15.9284L25.604 15.9437C25.4488 16.1796 25.2787 16.4407 25.2541 16.7404C25.2277 17.0623 25.3677 17.3549 25.6127 17.6686C25.7912 17.9312 26.1594 18.2897 26.5329 18.6534L26.5681 18.6877C26.9597 19.069 27.384 19.4821 27.7246 19.882L27.7337 19.8926L27.7436 19.9025C28.7588 20.91 29.603 22.0745 30.2434 23.3508C30.3455 23.6983 30.2829 23.8759 30.2035 23.9675C30.1106 24.0747 29.9024 24.1745 29.5081 24.1745H26.4503C26.2115 24.1745 26.0272 24.1277 25.8511 24.0352C25.6676 23.9388 25.4788 23.7855 25.2422 23.5488C25.0516 23.3582 24.8433 23.1275 24.5893 22.8463C24.5263 22.7765 24.4603 22.7035 24.3913 22.6274Z" fill="white"/>
</svg>
