<svg width="33" height="32" viewBox="0 0 33 32" fill="none" xmlns="http://www.w3.org/2000/svg">
<path d="M21.4757 9.33331C21.4757 8.59693 22.0758 7.99998 22.816 7.99998C23.5562 7.99998 24.1563 8.59693 24.1563 9.33331C24.1563 10.0697 23.5562 10.6666 22.816 10.6666C22.0758 10.6666 21.4757 10.0697 21.4757 9.33331Z" fill="white"/>
<path fill-rule="evenodd" clip-rule="evenodd" d="M16.1146 9.66665C12.5986 9.66665 9.74827 12.5022 9.74827 16C9.74827 19.4978 12.5986 22.3333 16.1146 22.3333C19.6306 22.3333 22.4809 19.4978 22.4809 16C22.4809 12.5022 19.6306 9.66665 16.1146 9.66665ZM11.7587 16C11.7587 13.6067 13.7089 11.6666 16.1146 11.6666C18.5203 11.6666 20.4705 13.6067 20.4705 16C20.4705 18.3932 18.5203 20.3333 16.1146 20.3333C13.7089 20.3333 11.7587 18.3932 11.7587 16Z" fill="white"/>
<path fill-rule="evenodd" clip-rule="evenodd" d="M23.1621 3.77733C18.5159 3.26075 13.7133 3.26075 9.0671 3.77733C6.37038 4.07717 4.19332 6.19052 3.87628 8.88722C3.32068 13.613 3.32068 18.387 3.87628 23.1127C4.19332 25.8094 6.37038 27.9228 9.0671 28.2226C13.7133 28.7392 18.5159 28.7392 23.1621 28.2226C25.8588 27.9228 28.0359 25.8094 28.3529 23.1127C28.9085 18.387 28.9085 13.613 28.3529 8.88722C28.0359 6.19052 25.8588 4.07717 23.1621 3.77733ZM9.2904 5.76496C13.7882 5.26487 18.441 5.26487 22.9388 5.76496C24.7215 5.96317 26.1496 7.36265 26.3561 9.11956C26.8936 13.6909 26.8936 18.309 26.3561 22.8804C26.1496 24.6373 24.7215 26.0368 22.9388 26.235C18.441 26.7351 13.7882 26.7351 9.2904 26.235C7.50769 26.0368 6.07964 24.6373 5.87308 22.8804C5.33563 18.309 5.33563 13.6909 5.87308 9.11956C6.07964 7.36265 7.50769 5.96317 9.2904 5.76496Z" fill="white"/>
</svg>
