<svg width="32" height="36" viewBox="0 0 32 36" fill="none" xmlns="http://www.w3.org/2000/svg">
<path d="M12.8889 2.66901C12.1525 2.66901 11.5555 2.07153 11.5555 1.3345C11.5555 0.597478 12.1525 0 12.8889 0H19.1743C19.9107 0 20.5076 0.597478 20.5076 1.3345C20.5076 2.07153 19.9107 2.66901 19.1743 2.66901H12.8889Z" fill="white"/>
<path d="M6.72059 3.4731C7.24129 3.99426 7.24129 4.83922 6.72059 5.36037L2.27614 9.80872C1.75544 10.3299 0.911223 10.3299 0.390524 9.80872C-0.130175 9.28756 -0.130175 8.4426 0.390524 7.92145L4.83497 3.4731C5.35567 2.95194 6.19989 2.95194 6.72059 3.4731Z" fill="white"/>
<path d="M16.4444 7.53058C9.32611 7.53058 3.55556 13.3062 3.55556 20.4308C3.55556 27.5554 9.32611 33.331 16.4444 33.331C23.5628 33.331 29.3333 27.5554 29.3333 20.4308C29.3333 19.6938 29.9303 19.0963 30.6667 19.0963C31.403 19.0963 32 19.6938 32 20.4308C32 29.0294 25.0355 36 16.4444 36C7.85335 36 0.888889 29.0294 0.888889 20.4308C0.888889 11.8321 7.85335 4.86157 16.4444 4.86157C17.1808 4.86157 17.7778 5.45905 17.7778 6.19607C17.7778 6.9331 17.1808 7.53058 16.4444 7.53058Z" fill="white"/>
<path d="M25.6679 12.1822C26.0808 11.651 26.0337 10.8952 25.5583 10.4193C25.0828 9.94339 24.3276 9.89633 23.7969 10.3095L18.1615 14.6965L14.479 17.3291C13.6923 17.8915 13.2255 18.7995 13.2255 19.767C13.2255 21.4216 14.5656 22.7629 16.2188 22.7629C17.1854 22.7629 18.0926 22.2956 18.6545 21.5083L21.2848 17.8226L25.6679 12.1822Z" fill="white"/>
</svg>
